<svg width="1317" height="778" xmlns="http://www.w3.org/2000/svg"><g><path d="M-72,-131L-97,260L-70,33Z" fill="#f9f9f9" stroke="#f9f9f9"/><path d="M-72,-131L-70,33L54,-134Z" fill="#f9f9f9" stroke="#f9f9f9"/><path d="M54,-134L-70,33L128,102Z" fill="#f6f6f6" stroke="#f6f6f6"/><path d="M54,-134L128,102L203,63Z" fill="#f0f0f0" stroke="#f0f0f0"/><path d="M54,-134L203,63L259,-17Z" fill="#eeeeee" stroke="#eeeeee"/><path d="M54,-134L259,-17L377,-26Z" fill="#eaeaea" stroke="#eaeaea"/><path d="M54,-134L377,-26L513,-68Z" fill="#e5e5e5" stroke="#e5e5e5"/><path d="M54,-134L513,-68L785,-126Z" fill="#dddddd" stroke="#dddddd"/><path d="M259,-17L203,63L393,63Z" fill="#e5e5e5" stroke="#e5e5e5"/><path d="M259,-17L393,63L377,-26Z" fill="#e3e3e3" stroke="#e3e3e3"/><path d="M377,-26L393,63L513,-68Z" fill="#dfdfdf" stroke="#dfdfdf"/><path d="M513,-68L393,63L501,110Z" fill="#d9d9d9" stroke="#d9d9d9"/><path d="M513,-68L501,110L643,-25Z" fill="#d2d2d2" stroke="#d2d2d2"/><path d="M513,-68L643,-25L785,-126Z" fill="#c9c9c9" stroke="#c9c9c9"/><path d="M643,-25L501,110L692,102Z" fill="#c9c9c9" stroke="#c9c9c9"/><path d="M643,-25L692,102L872,72Z" fill="#bdbdbd" stroke="#bdbdbd"/><path d="M643,-25L872,72L785,-126Z" fill="#bdbdbd" stroke="#bdbdbd"/><path d="M785,-126L872,72L980,-98Z" fill="#b1b1b1" stroke="#b1b1b1"/><path d="M785,-126L980,-98L1376,-118Z" fill="#a0a0a0" stroke="#a0a0a0"/><path d="M980,-98L872,72L981,34Z" fill="#aaaaaa" stroke="#aaaaaa"/><path d="M980,-98L981,34L1174,-43Z" fill="#a0a0a0" stroke="#a0a0a0"/><path d="M980,-98L1174,-43L1376,-118Z" fill="#939393" stroke="#939393"/><path d="M1174,-43L981,34L1119,76Z" fill="#9a9a9a" stroke="#9a9a9a"/><path d="M1174,-43L1119,76L1232,-42Z" fill="#939393" stroke="#939393"/><path d="M1174,-43L1232,-42L1376,-118Z" fill="#8a8a8a" stroke="#8a8a8a"/><path d="M1232,-42L1119,76L1266,111Z" fill="#8d8d8d" stroke="#8d8d8d"/><path d="M1232,-42L1266,111L1433,41Z" fill="#838383" stroke="#838383"/><path d="M1232,-42L1433,41L1376,-118Z" fill="#818181" stroke="#818181"/><path d="M-70,33L-97,260L48,170Z" fill="#f1f1f1" stroke="#f1f1f1"/><path d="M-70,33L48,170L128,102Z" fill="#f0f0f0" stroke="#f0f0f0"/><path d="M128,102L48,170L210,211Z" fill="#e7e7e7" stroke="#e7e7e7"/><path d="M128,102L210,211L203,63Z" fill="#e6e6e6" stroke="#e6e6e6"/><path d="M203,63L210,211L393,63Z" fill="#e2e2e2" stroke="#e2e2e2"/><path d="M393,63L210,211L404,253Z" fill="#dadada" stroke="#dadada"/><path d="M393,63L404,253L501,110Z" fill="#d7d7d7" stroke="#d7d7d7"/><path d="M501,110L404,253L523,253Z" fill="#cecece" stroke="#cecece"/><path d="M501,110L523,253L692,102Z" fill="#c8c8c8" stroke="#c8c8c8"/><path d="M692,102L523,253L732,225Z" fill="#bebebe" stroke="#bebebe"/><path d="M692,102L732,225L872,72Z" fill="#b5b5b5" stroke="#b5b5b5"/><path d="M872,72L732,225L867,232Z" fill="#adadad" stroke="#adadad"/><path d="M872,72L867,232L984,262Z" fill="#a3a3a3" stroke="#a3a3a3"/><path d="M872,72L984,262L981,34Z" fill="#a3a3a3" stroke="#a3a3a3"/><path d="M981,34L984,262L1119,76Z" fill="#9b9b9b" stroke="#9b9b9b"/><path d="M1119,76L984,262L1124,237Z" fill="#929292" stroke="#929292"/><path d="M1119,76L1124,237L1266,111Z" fill="#8b8b8b" stroke="#8b8b8b"/><path d="M1266,111L1124,237L1286,248Z" fill="#828282" stroke="#828282"/><path d="M1266,111L1286,248L1414,248Z" fill="#787878" stroke="#787878"/><path d="M1266,111L1414,248L1433,41Z" fill="#787878" stroke="#787878"/><path d="M1433,41L1414,248L1471,487Z" fill="#717171" stroke="#717171"/><path d="M-97,260L-53,977L-58,473Z" fill="#adadad" stroke="#adadad"/><path d="M-97,260L-58,473L-37,373Z" fill="#d6d6d6" stroke="#d6d6d6"/><path d="M-97,260L-37,373L48,170Z" fill="#e9e9e9" stroke="#e9e9e9"/><path d="M48,170L-37,373L77,398Z" fill="#dcdcdc" stroke="#dcdcdc"/><path d="M48,170L77,398L210,211Z" fill="#e2e2e2" stroke="#e2e2e2"/><path d="M210,211L77,398L178,387Z" fill="#d1d1d1" stroke="#d1d1d1"/><path d="M210,211L178,387L355,374Z" fill="#cdcdcd" stroke="#cdcdcd"/><path d="M210,211L355,374L404,253Z" fill="#d2d2d2" stroke="#d2d2d2"/><path d="M404,253L355,374L564,327Z" fill="#c3c3c3" stroke="#c3c3c3"/><path d="M404,253L564,327L523,253Z" fill="#c5c5c5" stroke="#c5c5c5"/><path d="M523,253L564,327L732,225Z" fill="#bcbcbc" stroke="#bcbcbc"/><path d="M732,225L564,327L701,393Z" fill="#adadad" stroke="#adadad"/><path d="M732,225L701,393L787,340Z" fill="#a4a4a4" stroke="#a4a4a4"/><path d="M732,225L787,340L867,232Z" fill="#a9a9a9" stroke="#a9a9a9"/><path d="M867,232L787,340L962,356Z" fill="#989898" stroke="#989898"/><path d="M867,232L962,356L984,262Z" fill="#979797" stroke="#979797"/><path d="M984,262L962,356L1170,371Z" fill="#838383" stroke="#838383"/><path d="M984,262L1170,371L1124,237Z" fill="#868686" stroke="#868686"/><path d="M1124,237L1170,371L1221,333Z" fill="#797979" stroke="#797979"/><path d="M1124,237L1221,333L1286,248Z" fill="#7d7d7d" stroke="#7d7d7d"/><path d="M1286,248L1221,333L1370,403Z" fill="#6a6a6a" stroke="#6a6a6a"/><path d="M1286,248L1370,403L1414,248Z" fill="#696969" stroke="#696969"/><path d="M1414,248L1370,403L1471,487Z" fill="#585858" stroke="#585858"/><path d="M-37,373L-58,473L77,398Z" fill="#c9c9c9" stroke="#c9c9c9"/><path d="M77,398L-58,473L41,540Z" fill="#bcbcbc" stroke="#bcbcbc"/><path d="M77,398L41,540L178,387Z" fill="#bebebe" stroke="#bebebe"/><path d="M178,387L41,540L255,500Z" fill="#b3b3b3" stroke="#b3b3b3"/><path d="M178,387L255,500L355,374Z" fill="#b8b8b8" stroke="#b8b8b8"/><path d="M355,374L255,500L431,535Z" fill="#a9a9a9" stroke="#a9a9a9"/><path d="M355,374L431,535L540,518Z" fill="#a2a2a2" stroke="#a2a2a2"/><path d="M355,374L540,518L564,327Z" fill="#acacac" stroke="#acacac"/><path d="M564,327L540,518L701,393Z" fill="#9f9f9f" stroke="#9f9f9f"/><path d="M701,393L540,518L735,524Z" fill="#8c8c8c" stroke="#8c8c8c"/><path d="M701,393L735,524L832,517Z" fill="#828282" stroke="#828282"/><path d="M701,393L832,517L787,340Z" fill="#8c8c8c" stroke="#8c8c8c"/><path d="M787,340L832,517L946,478Z" fill="#7e7e7e" stroke="#7e7e7e"/><path d="M787,340L946,478L962,356Z" fill="#858585" stroke="#858585"/><path d="M962,356L946,478L1125,472Z" fill="#707070" stroke="#707070"/><path d="M962,356L1125,472L1170,371Z" fill="#707070" stroke="#707070"/><path d="M1170,371L1125,472L1287,547Z" fill="#585858" stroke="#585858"/><path d="M1170,371L1287,547L1221,333Z" fill="#5e5e5e" stroke="#5e5e5e"/><path d="M1221,333L1287,547L1370,403Z" fill="#555555" stroke="#555555"/><path d="M1370,403L1287,547L1471,487Z" fill="#434343" stroke="#434343"/><path d="M-58,473L-53,977L-37,789Z" fill="#878787" stroke="#878787"/><path d="M-58,473L-37,789L-31,694Z" fill="#9a9a9a" stroke="#9a9a9a"/><path d="M-58,473L-31,694L41,540Z" fill="#aaaaaa" stroke="#aaaaaa"/><path d="M41,540L-31,694L116,630Z" fill="#9c9c9c" stroke="#9c9c9c"/><path d="M41,540L116,630L255,500Z" fill="#a3a3a3" stroke="#a3a3a3"/><path d="M255,500L116,630L210,727Z" fill="#949494" stroke="#949494"/><path d="M255,500L210,727L381,648Z" fill="#8d8d8d" stroke="#8d8d8d"/><path d="M255,500L381,648L431,535Z" fill="#969696" stroke="#969696"/><path d="M431,535L381,648L489,663Z" fill="#868686" stroke="#868686"/><path d="M431,535L489,663L540,518Z" fill="#8a8a8a" stroke="#8a8a8a"/><path d="M540,518L489,663L623,625Z" fill="#7d7d7d" stroke="#7d7d7d"/><path d="M540,518L623,625L735,524Z" fill="#7e7e7e" stroke="#7e7e7e"/><path d="M735,524L623,625L851,700Z" fill="#676767" stroke="#676767"/><path d="M735,524L851,700L832,517Z" fill="#686868" stroke="#686868"/><path d="M832,517L851,700L932,636Z" fill="#595959" stroke="#595959"/><path d="M832,517L932,636L946,478Z" fill="#656565" stroke="#656565"/><path d="M946,478L932,636L1125,472Z" fill="#5e5e5e" stroke="#5e5e5e"/><path d="M1125,472L932,636L1156,666Z" fill="#4a4a4a" stroke="#4a4a4a"/><path d="M1125,472L1156,666L1287,547Z" fill="#444444" stroke="#444444"/><path d="M1287,547L1156,666L1217,672Z" fill="#333333" stroke="#333333"/><path d="M1287,547L1217,672L1379,657Z" fill="#2c2c2c" stroke="#2c2c2c"/><path d="M1287,547L1379,657L1471,487Z" fill="#323232" stroke="#323232"/><path d="M1471,487L1379,657L1454,836Z" fill="#1e1e1e" stroke="#1e1e1e"/><path d="M1471,487L1454,836L1480,994Z" fill="#070707" stroke="#070707"/><path d="M-31,694L-37,789L72,788Z" fill="#828282" stroke="#828282"/><path d="M-31,694L72,788L116,630Z" fill="#8a8a8a" stroke="#8a8a8a"/><path d="M116,630L72,788L210,727Z" fill="#838383" stroke="#838383"/><path d="M210,727L72,788L233,773Z" fill="#777777" stroke="#777777"/><path d="M210,727L233,773L381,648Z" fill="#7b7b7b" stroke="#7b7b7b"/><path d="M381,648L233,773L394,783Z" fill="#737373" stroke="#737373"/><path d="M381,648L394,783L489,663Z" fill="#767676" stroke="#767676"/><path d="M489,663L394,783L477,814Z" fill="#686868" stroke="#686868"/><path d="M489,663L477,814L623,625Z" fill="#6b6b6b" stroke="#6b6b6b"/><path d="M623,625L477,814L696,865Z" fill="#565656" stroke="#565656"/><path d="M623,625L696,865L851,700Z" fill="#515151" stroke="#515151"/><path d="M851,700L696,865L830,846Z" fill="#3b3b3b" stroke="#3b3b3b"/><path d="M851,700L830,846L1031,853Z" fill="#303030" stroke="#303030"/><path d="M851,700L1031,853L932,636Z" fill="#3b3b3b" stroke="#3b3b3b"/><path d="M932,636L1031,853L1156,666Z" fill="#333333" stroke="#333333"/><path d="M1156,666L1031,853L1121,877Z" fill="#1c1c1c" stroke="#1c1c1c"/><path d="M1156,666L1121,877L1288,771Z" fill="#191919" stroke="#191919"/><path d="M1156,666L1288,771L1217,672Z" fill="#242424" stroke="#242424"/><path d="M1217,672L1288,771L1379,657Z" fill="#1d1d1d" stroke="#1d1d1d"/><path d="M1379,657L1288,771L1454,836Z" fill="#0b0b0b" stroke="#0b0b0b"/><path d="M-37,789L-53,977L64,940Z" fill="#797979" stroke="#797979"/><path d="M-37,789L64,940L72,788Z" fill="#767676" stroke="#767676"/><path d="M72,788L64,940L233,773Z" fill="#717171" stroke="#717171"/><path d="M233,773L64,940L196,1017Z" fill="#6f6f6f" stroke="#6f6f6f"/><path d="M233,773L196,1017L329,964Z" fill="#6a6a6a" stroke="#6a6a6a"/><path d="M233,773L329,964L394,783Z" fill="#666666" stroke="#666666"/><path d="M394,783L329,964L477,814Z" fill="#616161" stroke="#616161"/><path d="M477,814L329,964L549,932Z" fill="#5d5d5d" stroke="#5d5d5d"/><path d="M477,814L549,932L696,865Z" fill="#515151" stroke="#515151"/><path d="M696,865L549,932L694,960Z" fill="#494949" stroke="#494949"/><path d="M696,865L694,960L839,950Z" fill="#404040" stroke="#404040"/><path d="M696,865L839,950L830,846Z" fill="#3b3b3b" stroke="#3b3b3b"/><path d="M830,846L839,950L957,915Z" fill="#323232" stroke="#323232"/><path d="M830,846L957,915L1031,853Z" fill="#2b2b2b" stroke="#2b2b2b"/><path d="M1031,853L957,915L1118,985Z" fill="#222222" stroke="#222222"/><path d="M1031,853L1118,985L1121,877Z" fill="#1c1c1c" stroke="#1c1c1c"/><path d="M1121,877L1118,985L1248,1031Z" fill="#151515" stroke="#151515"/><path d="M1121,877L1248,1031L1288,771Z" fill="#0f0f0f" stroke="#0f0f0f"/><path d="M1288,771L1248,1031L1454,836Z" fill="#030303" stroke="#030303"/><path d="M1454,836L1248,1031L1480,994Z" fill="#000000" stroke="#000000"/><path d="M-53,977L196,1017L64,940Z" fill="#747474" stroke="#747474"/><path d="M196,1017L1248,1031L694,960Z" fill="#434343" stroke="#434343"/><path d="M196,1017L694,960L329,964Z" fill="#616161" stroke="#616161"/><path d="M329,964L694,960L549,932Z" fill="#565656" stroke="#565656"/><path d="M694,960L1248,1031L839,950Z" fill="#2d2d2d" stroke="#2d2d2d"/><path d="M839,950L1248,1031L1118,985Z" fill="#1e1e1e" stroke="#1e1e1e"/><path d="M839,950L1118,985L957,915Z" fill="#282828" stroke="#282828"/></g></svg>